<svg version="1.2" xmlns="http://www.w3.org/2000/svg" viewBox="0 0 128 128" width="128" height="128">
	<title>Novo Projeto</title>
	<style>
		.s0 { fill: none;stroke: #FFFFFF;stroke-miterlimit:100;stroke-width: 4 } 
	</style>
	<g id="zap">
		<path id="Camada 7" fill-rule="evenodd" class="s0" d="m64 126c-12.5 0-24.2-3.7-33.9-10.1-24.7 8.1-0.1 0.2-24.8 8 7.7-24.6 0.1 0.1 7.6-24.8-6.9-10-10.9-22.1-10.9-35.1 0-34.3 27.7-62 62-62 34.3 0 62 27.7 62 62 0 34.3-27.7 62-62 62z"/>
		<path id="Camada 8" class="s0" d="m44.1 83.5c-11.8-11.4-18.1-25-18.2-34-0.3-11.8 5.6-23.4 11.8-23.2 3.7 0.1 4.7 2.4 8.2 8 3.4 5.5 4.7 10.6 3.8 13-1.6 4.2-4.9 5.8-5 8.3-0.1 2.4 0.6 7.5 10.7 15.7 10.1 8.2 16.4 12 18.4 11.2 2.1-0.8 10.9-12 13.2-11.6 2.3 0.4 3.3 1.6 9.2 5.3 5.8 3.7 7.7 4.7 7.4 8.5-0.2 3.5-5.3 16.9-22.3 16-13.7-0.7-25.4-5.9-37.2-17.2z"/>
	</g>
</svg>