<svg version="1.2" xmlns="http://www.w3.org/2000/svg" viewBox="0 0 128 128" width="128" height="128">
	<title>Novo Projeto</title>
	<style>
		.s0 { fill: #FFFFFF } 
	</style>
	<path id="x" fill-rule="evenodd" class="s0" d="m30 0h68c16.6 0 30 13.4 30 30v68c0 16.6-13.4 30-30 30h-68c-16.6 0-30-13.4-30-30v-68c0-16.6 13.4-30 30-30zm-24 31v66c0 13.8 11.2 25 25 25h66c13.8 0 25-11.2 25-25v-66c0-13.8-11.2-25-25-25h-66c-13.8 0-25 11.2-25 25zm11.5-8.8l25.5-0.2 25.3 31.2 25.5-31.2h7.8l-29.3 36.1 38.6 47.7-26.9 0.2-25-31.5-25.5 31.3-8.5 0.3 30-36.7zm23 6.1h-10.7l57.5 72.1h12z"/>
</svg>