<svg version="1.2" xmlns="http://www.w3.org/2000/svg" viewBox="0 0 128 128" width="128" height="128">
	<title>Novo Projeto</title>
	<style>
		.s0 { fill: #FFFFFF } 
	</style>
	<path id="Camada 5" fill-rule="evenodd" class="s0" d="m64 128c-35.4 0-64-28.6-64-64 0-35.4 28.6-64 64-64 35.4 0 64 28.6 64 64 0 35.4-28.6 64-64 64zm-11-71v35c0 2.8 2.2 5 5 5h5c2.8 0 5-2.2 5-5v-21.7c0.7-2.2 3.3-6 6.6-6 5.7 0 6.4 4.8 6.4 5.7v22c0 2.8 2.2 5 5 5h5c2.8 0 5-2.2 5-5v-22c0-2.8-0.8-18.2-16.5-17.9-6.5 0.1-10.4 3.9-11.5 5.4v-0.5c0-2.8-2.2-5-5-5h-5c-2.8 0-5 2.2-5 5zm-19 0v35c0 2.8 2.2 5 5 5h4c2.8 0 5-2.2 5-5v-35c0-2.8-2.2-5-5-5h-4c-2.8 0-5 2.2-5 5zm16-16c0-5-4-9-9-9-5 0-9 4-9 9 0 5 4 9 9 9 5 0 9-4 9-9z"/>
</svg>